# xmcd
#
# Track frame offsets: 
#        150
#        36234
#        59567
#        79018
#        97638
#        122662
#        144855
#
# Disc length: 2181 seconds
#
# Revision: 0
# Processed by: cddbd v1.5.2PL0 Copyright (c) Steve Scherf et al.
# Submitted via: ExactAudioCopy v0.99pb4
#
DISCID=50088307
DTITLE=Alicia Myers - Alicia Myers
DYEAR=1984
DGENRE=R&B
TTITLE0=You Get The Best From Me (Say, Say, Say)
TTITLE1=Appreciation
TTITLE2=Say That
TTITLE3=My Guy
TTITLE4=Just Can't Stay Away
TTITLE5=Just Praying
TTITLE6=Don't Do Me This Way
EXTD=
EXTT0=
EXTT1=
EXTT2=
EXTT3=
EXTT4=
EXTT5=
EXTT6=
PLAYORDER=
